HIERARCHY
ROOT Hips
{
	OFFSET -14.64140 90.27770 -84.91600
	CHANNELS 6 Xposition Yposition Zposition Zrotation Xrotation Yrotation
	JOINT Spine
	{
		OFFSET 0.00000 13.20850 -1.60436
		CHANNELS 3 Zrotation Xrotation Yrotation
		JOINT Spine1
		{
			OFFSET 0.00000 8.61716 0.00000
			CHANNELS 3 Zrotation Xrotation Yrotation
			JOINT Spine2
			{
				OFFSET 0.00000 8.61717 0.00000
				CHANNELS 3 Zrotation Xrotation Yrotation
				JOINT Spine3
				{
					OFFSET 0.00000 8.61717 0.00000
					CHANNELS 3 Zrotation Xrotation Yrotation
					JOINT Neck
					{
						OFFSET 0.00000 11.07920 1.10792
						CHANNELS 3 Zrotation Xrotation Yrotation
						JOINT Neck1
						{
							OFFSET 0.00000 7.08032 0.00000
							CHANNELS 3 Zrotation Xrotation Yrotation
							JOINT Head
							{
								OFFSET 0.00000 7.08031 0.00000
								CHANNELS 3 Zrotation Xrotation Yrotation
								End site
								{
									OFFSET 0.00000 0.00000 0.00000
								}
							}
						}
					}
					JOINT RightShoulder
					{
						OFFSET -0.01000 7.91373 5.19711
						CHANNELS 3 Zrotation Xrotation Yrotation
						JOINT RightArm
						{
							OFFSET -18.41580 0.00000 0.00000
							CHANNELS 3 Zrotation Xrotation Yrotation
							JOINT RightForeArm
							{
								OFFSET -29.11090 0.00000 0.00000
								CHANNELS 3 Zrotation Xrotation Yrotation
								JOINT RightHand
								{
									OFFSET -24.65040 0.00000 0.00000
									CHANNELS 3 Zrotation Xrotation Yrotation
									JOINT RightHandThumb1
									{
										OFFSET -5.35114 -0.85590 3.97906
										CHANNELS 3 Zrotation Xrotation Yrotation
										JOINT RightHandThumb2
										{
											OFFSET -4.52789 0.00000 0.00000
											CHANNELS 3 Zrotation Xrotation Yrotation
											JOINT RightHandThumb3
											{
												OFFSET -2.46976 0.00000 0.00000
												CHANNELS 3 Zrotation Xrotation Yrotation
												End site
												{
													OFFSET 0.00000 0.00000 0.00000
												}
											}
										}
									}
									JOINT RightHandIndex1
									{
										OFFSET -14.26970 0.00000 2.88139
										CHANNELS 3 Zrotation Xrotation Yrotation
										JOINT RightHandIndex2
										{
											OFFSET -5.48836 0.00000 0.00000
											CHANNELS 3 Zrotation Xrotation Yrotation
											JOINT RightHandIndex3
											{
												OFFSET -3.01859 0.00000 0.00000
												CHANNELS 3 Zrotation Xrotation Yrotation
												End site
												{
													OFFSET 0.00000 0.00000 0.00000
												}
											}
										}
									}
									JOINT RightHandMiddle1
									{
										OFFSET -14.26970 0.00000 -0.09147
										CHANNELS 3 Zrotation Xrotation Yrotation
										JOINT RightHandMiddle2
										{
											OFFSET -6.17441 0.00000 0.00000
											CHANNELS 3 Zrotation Xrotation Yrotation
											JOINT RightHandMiddle3
											{
												OFFSET -3.56743 0.00000 0.00000
												CHANNELS 3 Zrotation Xrotation Yrotation
												End site
												{
													OFFSET 0.00000 0.00000 0.00000
												}
											}
										}
									}
									JOINT RightHandRing1
									{
										OFFSET -12.69180 0.00000 -3.06433
										CHANNELS 3 Zrotation Xrotation Yrotation
										JOINT RightHandRing2
										{
											OFFSET -5.62556 0.00000 0.00000
											CHANNELS 3 Zrotation Xrotation Yrotation
											JOINT RightHandRing3
											{
												OFFSET -3.56744 0.00000 0.00000
												CHANNELS 3 Zrotation Xrotation Yrotation
												End site
												{
													OFFSET 0.00000 0.00000 0.00000
												}
											}
										}
									}
									JOINT RightHandPinky1
									{
										OFFSET -11.11390 0.00000 -6.03719
										CHANNELS 3 Zrotation Xrotation Yrotation
										JOINT RightHandPinky2
										{
											OFFSET -4.52789 0.00000 0.00000
											CHANNELS 3 Zrotation Xrotation Yrotation
											JOINT RightHandPinky3
											{
												OFFSET -2.46976 0.00000 0.00000
												CHANNELS 3 Zrotation Xrotation Yrotation
												End site
												{
													OFFSET 0.00000 0.00000 0.00000
												}
											}
										}
									}
								}
							}
						}
					}
					JOINT LeftShoulder
					{
						OFFSET 0.01000 7.91373 5.19711
						CHANNELS 3 Zrotation Xrotation Yrotation
						JOINT LeftArm
						{
							OFFSET 18.41580 0.00000 0.00000
							CHANNELS 3 Zrotation Xrotation Yrotation
							JOINT LeftForeArm
							{
								OFFSET 29.11090 0.00000 0.00000
								CHANNELS 3 Zrotation Xrotation Yrotation
								JOINT LeftHand
								{
									OFFSET 24.65040 0.00000 0.00000
									CHANNELS 3 Zrotation Xrotation Yrotation
									JOINT LeftHandThumb1
									{
										OFFSET 5.35114 -0.85590 3.97906
										CHANNELS 3 Zrotation Xrotation Yrotation
										JOINT LeftHandThumb2
										{
											OFFSET 4.52789 0.00000 0.00000
											CHANNELS 3 Zrotation Xrotation Yrotation
											JOINT LeftHandThumb3
											{
												OFFSET 2.46977 0.00000 0.00000
												CHANNELS 3 Zrotation Xrotation Yrotation
												End site
												{
													OFFSET 0.00000 0.00000 0.00000
												}
											}
										}
									}
									JOINT LeftHandIndex1
									{
										OFFSET 14.26970 0.00000 2.88139
										CHANNELS 3 Zrotation Xrotation Yrotation
										JOINT LeftHandIndex2
										{
											OFFSET 5.48836 0.00000 0.00000
											CHANNELS 3 Zrotation Xrotation Yrotation
											JOINT LeftHandIndex3
											{
												OFFSET 3.01859 0.00000 0.00000
												CHANNELS 3 Zrotation Xrotation Yrotation
												End site
												{
													OFFSET 0.00000 0.00000 0.00000
												}
											}
										}
									}
									JOINT LeftHandMiddle1
									{
										OFFSET 14.26970 0.00000 -0.09147
										CHANNELS 3 Zrotation Xrotation Yrotation
										JOINT LeftHandMiddle2
										{
											OFFSET 6.17440 0.00000 0.00000
											CHANNELS 3 Zrotation Xrotation Yrotation
											JOINT LeftHandMiddle3
											{
												OFFSET 3.56744 0.00000 0.00000
												CHANNELS 3 Zrotation Xrotation Yrotation
												End site
												{
													OFFSET 0.00000 0.00000 0.00000
												}
											}
										}
									}
									JOINT LeftHandRing1
									{
										OFFSET 12.69180 0.00000 -3.06433
										CHANNELS 3 Zrotation Xrotation Yrotation
										JOINT LeftHandRing2
										{
											OFFSET 5.62556 0.00000 0.00000
											CHANNELS 3 Zrotation Xrotation Yrotation
											JOINT LeftHandRing3
											{
												OFFSET 3.56744 0.00000 0.00000
												CHANNELS 3 Zrotation Xrotation Yrotation
												End site
												{
													OFFSET 0.00000 0.00000 0.00000
												}
											}
										}
									}
									JOINT LeftHandPinky1
									{
										OFFSET 11.11390 0.00000 -6.03719
										CHANNELS 3 Zrotation Xrotation Yrotation
										JOINT LeftHandPinky2
										{
											OFFSET 4.52789 0.00000 0.00000
											CHANNELS 3 Zrotation Xrotation Yrotation
											JOINT LeftHandPinky3
											{
												OFFSET 2.46976 0.00000 0.00000
												CHANNELS 3 Zrotation Xrotation Yrotation
												End site
												{
													OFFSET 0.00000 0.00000 0.00000
												}
											}
										}
									}
								}
							}
						}
					}
					JOINT pCube4
					{
						OFFSET 0.00000 10.91090 1.10792
						CHANNELS 3 Zrotation Xrotation Yrotation
						End site
						{
							OFFSET 0.00000 0.00000 0.00000
						}
					}
				}
			}
		}
	}
	JOINT RightUpLeg
	{
		OFFSET -9.98441 0.00000 0.00000
		CHANNELS 3 Zrotation Xrotation Yrotation
		JOINT RightLeg
		{
			OFFSET 0.00000 -42.11790 0.00000
			CHANNELS 3 Zrotation Xrotation Yrotation
			JOINT RightFoot
			{
				OFFSET 0.00000 -45.00020 -0.00001
				CHANNELS 3 Zrotation Xrotation Yrotation
				JOINT RightForeFoot
				{
					OFFSET 0.00000 -3.74820 0.00000
					CHANNELS 3 Zrotation Xrotation Yrotation
					JOINT RightToeBase
					{
						OFFSET 0.00000 0.06325 14.43120
						CHANNELS 3 Zrotation Xrotation Yrotation
						End site
						{
							OFFSET 0.00000 0.00000 0.00000
						}
					}
				}
			}
		}
	}
	JOINT LeftUpLeg
	{
		OFFSET 9.98441 0.00000 0.00000
		CHANNELS 3 Zrotation Xrotation Yrotation
		JOINT LeftLeg
		{
			OFFSET 0.00000 -42.11800 0.00000
			CHANNELS 3 Zrotation Xrotation Yrotation
			JOINT LeftFoot
			{
				OFFSET 0.00000 -45.00070 0.00000
				CHANNELS 3 Zrotation Xrotation Yrotation
				JOINT LeftForeFoot
				{
					OFFSET 0.00000 -3.74824 0.00000
					CHANNELS 3 Zrotation Xrotation Yrotation
					JOINT LeftToeBase
					{
						OFFSET 0.00000 0.06325 14.43110
						CHANNELS 3 Zrotation Xrotation Yrotation
						End site
						{
							OFFSET 0.00000 0.00000 0.00000
						}
					}
				}
			}
		}
	}
}
MOTION
Frames: 4
Frame Time: 0.050000
0.021430431966676794 0.005393263107510114 -0.04512143238179453 0.01783052889775256 0.015016960390856628 0.007810616922010055 -2.6352336619108114 1.1498744317758127 -0.720087440647484 -0.955281825619928 3.7169238327974945 0.35469102690117527 -1.1914877867233675 -2.021957655558286 -0.9453013027095513 -0.5636618027401107 0.20361297549152868 -0.7980544548406261 -0.6824114778503816 13.637309259139005 1.367419857911881 -0.27708268254488577 0.6558571095878971 1.0372775784912813 -0.7093459473622534 -13.816212410047205 0.1461676295342731 -7.015308886118905 2.398868222438869 -12.702940900761826 63.943583704238655 5.443657609157134 24.529247552769434 17.575169352110148 -4.347120853347107 75.17245387265756 17.481171497020014 -0.31608994709781457 -3.5709167830809054 4.540618410869905 -0.11649273045527207 -1.6390658444803123 0.010756725907715132 -0.044218082926434345 -56.26866239689268 -0.007794220086647449 -0.031071873779720417 -56.23402699458856 -38.7508229813457 0.012485924259623828 0.0035159655447012735 0.026515775308838856 0.0025701210522798626 0.005386761266183073 0.0416457762807877 -0.029836338404138477 -0.009309440779416327 -36.72727869506881 -0.018187894569886356 0.007987611982012638 0.006270425599134603 0.0029171537363994913 0.018201434403248964 -0.04782384267880902 0.016077660370819216 -0.03864020563608796 -19.808283665438008 0.018393465382675386 0.0019314450011429403 0.038679152545843094 -0.011409541593398345 -0.0335607418654419 -0.014340356498187882 -0.020337758578831622 0.030458121227261867 24.042146254903248 -0.016562543416189165 -0.03534249913018729 28.907993286972452 0.026933347051591835 0.04369384735470886 28.87684821614087 -0.02148798414809701 -0.0004516940273052649 8.871349792034705 1.899725962389699 12.041173595413529 -63.62930173950073 13.941440938140028 -24.147006611926816 -38.08686935056357 3.385351673133913 -77.87406852712725 -13.094747953750884 -0.2796671908029259 1.0959498871814517 -0.42751620493236986 0.11047635223335617 -8.100673969822425 -0.04109577496336715 -0.01419869027101565 44.58274526237985 -0.001656110196471197 0.04061850366474259 44.539436530181376 12.472385618433725 -0.00920161152545728 -0.049607133472549164 0.03305100540876637 -0.022034936990640346 -0.010151808256022243 0.03784634186601962 0.019607642916981964 0.01722187234298498 11.13882976648567 -0.0024726929038605466 0.04191677143695577 -0.03028239594114882 -0.04737956197627942 -0.027613925981974735 -0.040419908024128315 0.033136961993186526 -0.014925874046020212 4.784769559969812 0.004021337557428832 -0.02019701801548403 0.04527865985533867 0.007374981498539423 0.02769932355545313 -0.0023626725229833026 0.007041540529399388 0.0008132831572077149 -5.594995834303271 0.04840650773272771 -0.010577260471113242 -6.708036694370446 -0.039776312179911316 -0.03803285829010472 -6.696792220442117 0.04415338055573463 0.023954471787107287 -0.013699736269252541 0.007668095904095814 0.043342096898923606 8.008665331984481 3.4734120593212223 -19.20755977611565 -0.020514568837222268 10.425386146365192 -0.004848125084763576 -5.647850710754883 -15.666658089243922 3.1980147033613195 0.018094402399052974 -0.030077895519722404 -4.296282585240695e-05 0.02007253757830413 4.719707945559922 0.002644500283269994 12.448853920022096 -8.252698520546797 6.9047812672816695 0.004372589869365424 46.37650541693202 -0.01071207281457513 -4.361087302254023 -14.765147587140179 -3.790975160042002 0.004354142418910879 0.023541579672168186 -0.006603838028522497 -0.00952721423807222 -10.71407485060336 -0.04004728029661912 
0.008325153710178656 -0.008367416339424444 0.043643626946224416 -0.024962191243021438 0.03858607547838461 -0.049578597596734934 -2.6922098001449326 1.2690635059450122 -0.7470148705560435 -0.9846063235690995 3.653429142579005 0.4103294972246216 -1.2025603401803369 -1.9652854663951822 -1.0304237022087759 -0.47314234946481576 0.270851515862802 -0.8270568779470898 -0.6711135794945265 13.44373647789528 1.3761407811076123 -0.31074598324510727 0.4828036703520724 0.9563091863215397 -0.6970877459692332 -14.039988771504943 0.1013215150674475 -6.860274852381183 2.3545985023971485 -12.748552877112129 63.67881410526112 6.332099508129775 23.34877476481471 18.95470418978683 -5.339424023992173 72.6643566689794 17.805181204885244 -0.37110578860212207 -3.5153578751003636 4.489695072908228 -0.08414248737820165 -1.6376648404194478 -0.0042450474596876335 0.025701422878631565 -56.24397025292536 -0.018858370834395812 0.0023316431527762 -56.25588521342264 -38.79800115882962 0.0050445796549328775 0.03932165028527189 -0.04398465799144402 -0.027673350686138153 -0.021076742252588217 0.016578241424123893 0.041529333189465334 -0.008424918072448566 -36.68397912542241 -0.02590993545938134 -0.015228109562869963 -0.03209222943048285 -0.0023277409359377253 -0.028902014543609526 0.019684326771808088 -0.017347614101046578 -0.021513086288489608 -19.720869103188853 0.025375778497869123 0.015326663745447035 -0.013751566612912111 0.026115772292204808 -0.0158995559808871 0.041808311690853174 -0.02264891150507613 0.02817378333424473 24.082245960893783 0.01811391303893832 0.046456889020485524 28.914013468304113 0.018491622330339796 -0.017084189482751335 28.828066610254055 -0.011081414490961042 0.012172708306994032 8.461634815287562 1.8511195112268963 11.953525325385883 -64.17491771372673 14.360082544738527 -22.660271282353705 -42.7614848832579 4.601314627621509 -76.53982022811839 -13.058861259232426 0.5126297918255079 0.7058185624198938 -0.5218622279534859 0.04091910448833697 -8.129494065239339 -0.018624821260375374 0.01322364251736658 44.52707272397376 -0.026810703609318077 0.046728110049119045 44.53844427676282 12.42955250993689 0.014807721341918954 -0.02221162179346631 -0.0191081896840873 -0.016904964503441772 0.02197507609740518 -0.008475046780860591 0.046128944943899554 0.014663933341483797 11.129807711079742 2.234007611018876e-05 -0.03824752170561521 -0.01578275222046842 -0.0189796126218555 0.029999875986461574 0.04766334579344477 0.02621293462515086 0.003453839548849204 4.748201805404327 -0.028651692588604127 -0.003844471777598917 -0.02667299694044971 0.01857309084532727 -0.03986954615080547 -0.03442330715328267 0.04055114384294804 -0.004226195398496123 -5.621465695418097 0.037486554755387085 -0.00181650759781947 -6.686401343688326 -0.03134893123825443 0.017615698894031993 -6.680282325228814 -0.017438441109543217 -0.024608784579544123 -0.004614614879869857 0.008811628041376876 -0.032440090324615575 8.054342202529895 3.5161324708629866 -19.20575165016238 0.03666274141105664 10.349424394475568 -0.016333837236022532 -5.6511243156337105 -15.6814723593902 3.2017997261707545 -0.0022453257350518833 -0.004470295023755621 -0.029249531787964904 -0.008370884453108426 4.732024311583471 0.003571592798717853 12.464519048174004 -8.229970867387276 6.866211091993997 0.02932992638155269 46.427371984913904 -0.020824948330800154 -4.356965571416605 -14.78564197499074 -3.789367422242392 -0.007076055204224541 0.04195503919938286 -0.030060400768381415 0.0017678500234247735 -10.725627229267056 0.003848323546039593 
0.026750508239977457 -0.0106725123094259 0.023600812270041432 0.0011072683639133435 0.017648379409115705 0.010434027777810901 -2.7143659034354126 1.3647620336621653 -0.6880741095109835 -1.058152786587986 3.690319997170873 0.40928020798244075 -1.2554146486198445 -1.9014860287415019 -1.07250604877876 -0.3369589278047703 0.290715893250667 -0.8686084579618315 -0.6287416715225085 13.182009906979198 1.215790511978661 -0.2817794976752407 0.30927947001989653 0.5245247219571739 -0.6646703945020576 -14.245666189191862 0.11899563020488244 -6.594980358426227 2.2128045235216947 -12.87675050817452 63.434401819914974 7.207067501927943 21.638012469344094 21.660668257649334 -6.151081243632677 69.87199478078242 18.29188410870592 -0.2903602898978128 -3.554838801533925 4.54659616759789 -0.1364210938066553 -1.5672297639022945 0.029313212420161078 0.025884882056561326 -56.22001268662144 0.04301869498957744 -0.02102187559097112 -56.24587987542852 -38.73755198257357 -0.001110377573877049 -0.02092160516515513 -0.028764614404973392 0.002337426034971336 -0.017642150805084175 0.019649291359941857 -0.04868186474899206 0.04340324372631707 -36.67916924365953 -0.03497829614779716 0.022689870461806264 -0.030738866116851296 0.01455125906531945 -0.03273031098453374 0.0365191907000217 0.017780664234402783 0.01803054132818893 -19.770602119169524 -0.02896256212213745 0.04363004617120133 0.017684563307786404 -0.03195050752729509 -0.017660237235206492 0.032733453696598386 -0.00874435039671985 -0.04539229751361337 24.02361974809356 0.03671188264320753 0.032542369592020594 28.849657720969358 0.005625611285681867 -0.0034061207360276706 28.881375086479004 0.033190241009443906 0.007293908337346639 8.02414640834484 1.7735563442304878 11.914843004238946 -64.70329751811023 14.817411785680882 -20.256345034249815 -46.246099108953835 4.87716609991378 -74.47842353426007 -12.928021523073381 1.2158827607461287 0.24475981634900534 -0.4564645428711125 0.04044675865380069 -8.092170092329109 -0.022482410074630706 -0.010091797325397448 44.58062348867131 -0.006992805870420906 -0.03260454009556185 44.56918072901806 12.418142551064603 0.028230554168764847 -0.030639185861308656 -0.025911679647177884 0.033674363146124334 -0.0005131417419001653 0.015624769877462722 -0.020883222556642742 0.030646351991328716 11.088386169931828 -0.01871024442262963 0.03223967328779986 0.010901103039429831 -0.003617772338801776 0.011695917985156479 0.02013280767875055 0.0496688440016424 0.0030064386173484356 4.746846397269223 -0.04696536828667353 0.00853134549432359 -0.005943572221935578 0.013993314123164567 0.03473145313207996 0.02208192139326905 -0.03426299639435903 -0.034365373542497454 -5.602398878277538 -0.007691401929123885 0.003666088011588142 -6.7482349940045925 0.01005839147343777 0.02781295119218146 -6.708319677430656 0.0037808458129429184 -0.03445371561722735 -0.046720805610533184 0.021040191579535558 0.009070913341421339 8.070182985556318 3.5341070602838554 -19.22776983530269 -0.025505292890067956 10.389596532711073 -0.01158149626360044 -5.580264118867433 -15.624307062283721 3.1685213560827585 0.018291394591852136 0.04023767311293239 0.015339296061584979 -0.0009903429722619122 4.719047252349271 0.034240766014732554 12.41613366996867 -8.2341229860554 6.903809667996336 -0.038947236958508234 46.38842157322429 0.015555229841047164 -4.345237353287785 -14.733915297832127 -3.817862694997017 0.04797421404602346 0.034229036080482396 -0.008764539604487528 0.03884533308229328 -10.696482113164317 0.017307534264197427 
-0.00041794136588791026 -0.0039217043281105785 0.026648323079618987 0.014327173818319081 -0.018233308536983732 -0.01699376550846061 -2.737832419628155 1.4718634780336652 -0.7113075280422727 -1.057587502744337 3.725045981794807 0.38839432711371275 -1.2337273312463648 -1.8560204625201056 -0.9406990200579829 -0.2541616583731066 0.3608716237412875 -0.870774113198044 -0.5459631236094177 13.038875931497119 0.9257773345927094 -0.3574493544418642 0.19398201553182176 -0.2838005512588089 -0.6295417821122363 -14.578757056654574 0.06402249618373196 -6.493381456113742 2.134309095429653 -13.007983533510057 63.40198002754467 7.621619641211764 20.341228901944547 23.912934511936164 -6.833891069804408 67.48440711065129 18.346353421032358 -0.2388072864159414 -3.5221513449128827 4.516541792493058 -0.14077877255452867 -1.5820783897781394 -0.03398034638661945 -0.018647531366740543 -56.27596978927601 0.04811794675381315 -0.022996619027881623 -56.23574408567521 -38.724162848782996 0.0388053446050527 -0.02265145058216169 -0.0031876303218009274 0.01915209384185895 0.04925228008077321 -0.0306006254175029 -0.009284681844476048 -0.04125875446896903 -36.645535632722726 -0.018758936852423982 0.010826361417183987 -0.0076957746751675805 -0.008260262664147875 -0.015268532423752399 0.034494714525985064 -0.022341432376643714 -0.018400543822181033 -19.789023512067907 -0.03687828247202569 0.0034924780841068307 0.012270284300181745 0.024643600499165683 0.04856965401051762 -0.0007607223031552623 0.033508761271498766 0.04605300524616395 24.040462208835002 0.004134241632602977 -0.015319427768357968 28.89243243065486 -0.036166660360267854 0.025780606405265524 28.89962473674574 -0.019282323353459804 0.006966530992278428 7.429097318250831 1.6333609198214942 11.991344323149788 -65.17251852057596 15.684249353998549 -17.375368614649815 -45.50356322880652 3.756489104275841 -70.67053006489161 -12.51786002569105 1.7942785420302612 -0.05704757148524226 -0.48999875479906313 0.05911106055074093 -8.13607578914634 0.022272693999881955 -0.042734771521193905 44.55782573505428 0.0050202013164012136 0.007865149319594048 44.58816354572728 12.486399735774445 0.04987925925489976 -0.02523239680429943 -0.028557643317039617 0.006574316305657566 -0.017006353212257967 0.04854607261302248 -0.0068799251652820045 0.010880911944106564 11.097950437582352 0.0369284510272763 0.02490287724962764 -0.00153677956775593 0.049798339503560315 -0.015424806577726878 -0.03669763800265907 0.030959709637107865 0.030091815519089096 4.74104171505502 -0.027050730602736363 -0.027691406290710378 0.008336300952251418 -0.03281590575294186 -0.04748433442098303 -0.011877239436522328 0.023516942991120487 -0.021574552702516164 -5.62385961050006 -0.010867877502979257 -0.034639022737866336 -6.702112622890444 -0.030019550135614703 -0.010836503342005659 -6.739897969522777 -0.007417964547440971 -0.01041526898745887 0.02042177680422105 0.002574086435570132 0.010920924249298495 8.069670936250905 3.471943684294029 -19.21998155664494 -0.04927407934348737 10.375636140497804 -0.008891348231044368 -5.632277054353552 -15.6118908366872 3.2204023802075534 -0.038988150268566536 -0.010935111361807904 -0.01856821756965964 0.0364053412191068 4.705150508982796 0.03190366462465212 12.468812713292197 -8.251773964999614 6.882075114752719 0.01372704059319149 46.345187043909725 -0.014943139535944488 -4.298167187222913 -14.738287930244276 -3.7958457070330898 -0.013455691180316238 0.017729338689846972 -0.04485250101992396 0.036470279269191885 -10.724766119912541 0.008074284217891048 
